<?xml version="1.0" encoding="iso-8859-1"?>
<!-- Generator: Adobe Illustrator 16.0.0, SVG Export Plug-In . SVG Version: 6.00 Build 0)  -->
<!DOCTYPE svg PUBLIC "-//W3C//DTD SVG 1.1//EN" "http://www.w3.org/Graphics/SVG/1.1/DTD/svg11.dtd">
<svg xmlns="http://www.w3.org/2000/svg" xmlns:xlink="http://www.w3.org/1999/xlink" version="1.1" id="Capa_1" x="0px" y="0px" width="512px" height="512px" viewBox="0 0 612 612.001" style="enable-background:new 0 0 612 612.001;" xml:space="preserve">
<g>
	<g>
		<g>
			<path d="M516.375,353.375c0.18-5.259,4.602-9.363,9.861-9.184c5.26,0.179,9.362,4.602,9.184,9.86     c-2.59,71.798-33.469,136.405-81.799,182.982c-48.171,46.419-113.654,74.967-185.791,74.967     c-73.89,0-140.848-29.982-189.317-78.452l-0.02-0.021l-0.04-0.021l-0.02-0.02C29.982,485.019,0,418.081,0,344.191     c0-72.117,28.548-137.602,74.946-185.752C121.503,110.109,186.09,79.23,257.849,76.6c5.26-0.179,9.682,3.925,9.861,9.184v0.338     h0.04v76.62c0,5.279-4.283,9.562-9.563,9.562h-0.279c-45.203,2.57-85.784,22.591-115.049,53.451     c-29.246,30.819-47.175,72.516-47.175,118.415c0,47.534,19.285,90.585,50.422,121.723c31.138,31.14,74.189,50.424,121.723,50.424     c45.92,0,87.636-17.95,118.475-47.216c31.039-29.443,51.12-70.323,53.472-115.865c0.259-5.26,4.762-9.304,10.001-9.024     c5.259,0.259,9.304,4.762,9.044,10.001c-2.629,50.603-24.922,96.043-59.367,128.715c-34.305,32.554-80.645,52.534-131.624,52.534     c-52.813,0-100.645-21.436-135.25-56.021c-34.602-34.604-56.018-82.438-56.018-135.25c0-50.94,19.962-97.259,52.494-131.564     c30.7-32.373,72.655-54.008,119.571-58.709V96.184c-62.674,4.781-118.874,32.812-159.953,75.464     c-43.051,44.705-69.547,105.526-69.547,172.543c0,68.689,27.811,130.865,72.794,175.829l0.04,0.04     c44.963,44.983,107.16,72.796,175.831,72.796c67.057,0,127.897-26.496,172.583-69.567     C485.278,480.059,513.965,420.054,516.375,353.375z" fill="#C7C7C7"/>
			<path d="M248.625,219.859c0-5.279,4.283-9.563,9.563-9.563s9.563,4.303,9.563,9.563v124.292h181.787     c5.279,0,9.562,4.282,9.562,9.562s-4.282,9.563-9.562,9.563h-191.11h-0.239c-5.279,0-9.563-4.283-9.563-9.563L248.625,219.859     L248.625,219.859z" fill="#C7C7C7"/>
			<path d="M325.185,86.382c0-5.279,4.283-9.563,9.563-9.563s9.562,4.283,9.562,9.563V268.09h105.247     c5.279,0,9.563,4.283,9.563,9.563c0,5.28-4.283,9.582-9.563,9.582H334.989h-0.26c-5.278,0-9.562-4.283-9.562-9.582V86.383     L325.185,86.382L325.185,86.382z" fill="#C7C7C7"/>
			<path d="M344.31,86.382c0,5.279-4.282,9.563-9.562,9.563s-9.563-4.303-9.563-9.563V9.762c0-5.279,4.283-9.562,9.563-9.562     l0.657,0.02l0.638-0.02C339.389,0.119,342.776,0,344.191,0c73.89,0,140.848,29.982,189.316,78.452l0.021,0.02l0.021,0.02h0.021     C582.018,126.983,612,193.92,612,267.811l-0.06,1.116l-0.159,8.387c-0.08,5.22-4.344,9.383-9.523,9.383v0.04H525.62     c-5.279,0-9.563-4.283-9.563-9.582l0.079-1.215l0.141-3.765v-0.1l0.06-4.244h-0.04c0-39.226-13.107-75.404-35.162-104.311     c-22.591-29.624-54.604-51.737-91.521-61.817c-5.08-1.375-8.049-6.614-6.674-11.694c1.374-5.08,6.613-8.048,11.693-6.674     c41.039,11.196,76.601,35.72,101.661,68.591c24.504,32.114,39.087,72.217,39.146,115.646h57.435     c-0.06-68.591-27.871-130.708-72.795-175.631l-0.039-0.04C475.096,46.938,412.96,19.127,344.33,19.107v67.276L344.31,86.382     L344.31,86.382z" fill="#C7C7C7"/>
		</g>
	</g>
</g>
<g>
</g>
<g>
</g>
<g>
</g>
<g>
</g>
<g>
</g>
<g>
</g>
<g>
</g>
<g>
</g>
<g>
</g>
<g>
</g>
<g>
</g>
<g>
</g>
<g>
</g>
<g>
</g>
<g>
</g>
</svg>
